<mxfile host="app.diagrams.net" modified="2023-10-17T03:39:14.420Z" agent="Mozilla/5.0 (Windows NT 10.0; Win64; x64; rv:109.0) Gecko/20100101 Firefox/118.0" etag="qVSYxvHlMjnGjwpwxOVf" version="22.0.4" type="github">
  <diagram name="Page-1" id="bjfY-KSuJK-EBY8lpJ7y">
    <mxGraphModel dx="880" dy="1570" grid="1" gridSize="10" guides="1" tooltips="1" connect="1" arrows="1" fold="1" page="1" pageScale="1" pageWidth="850" pageHeight="1100" math="0" shadow="0">
      <root>
        <mxCell id="0" />
        <mxCell id="1" parent="0" />
        <mxCell id="Xdr3LyNj60tSeZOuh8ZX-7" style="edgeStyle=orthogonalEdgeStyle;rounded=0;orthogonalLoop=1;jettySize=auto;html=1;exitX=0.5;exitY=0.5;exitDx=0;exitDy=15;exitPerimeter=0;" edge="1" parent="1" source="Xdr3LyNj60tSeZOuh8ZX-1" target="Xdr3LyNj60tSeZOuh8ZX-6">
          <mxGeometry relative="1" as="geometry" />
        </mxCell>
        <mxCell id="Xdr3LyNj60tSeZOuh8ZX-1" value="START" style="html=1;dashed=0;whiteSpace=wrap;shape=mxgraph.dfd.start;fillColor=#f5f5f5;gradientColor=#b3b3b3;strokeColor=#666666;" vertex="1" parent="1">
          <mxGeometry x="370" y="-230" width="100" height="30" as="geometry" />
        </mxCell>
        <mxCell id="Xdr3LyNj60tSeZOuh8ZX-8" style="edgeStyle=orthogonalEdgeStyle;rounded=0;orthogonalLoop=1;jettySize=auto;html=1;exitX=1;exitY=0.5;exitDx=0;exitDy=0;exitPerimeter=0;" edge="1" parent="1" source="Xdr3LyNj60tSeZOuh8ZX-4">
          <mxGeometry relative="1" as="geometry">
            <mxPoint x="540" y="20" as="targetPoint" />
          </mxGeometry>
        </mxCell>
        <mxCell id="Xdr3LyNj60tSeZOuh8ZX-12" value="Y" style="edgeLabel;html=1;align=center;verticalAlign=middle;resizable=0;points=[];" vertex="1" connectable="0" parent="Xdr3LyNj60tSeZOuh8ZX-8">
          <mxGeometry x="-0.116" y="3" relative="1" as="geometry">
            <mxPoint as="offset" />
          </mxGeometry>
        </mxCell>
        <mxCell id="Xdr3LyNj60tSeZOuh8ZX-11" style="edgeStyle=orthogonalEdgeStyle;rounded=0;orthogonalLoop=1;jettySize=auto;html=1;exitX=0.5;exitY=1;exitDx=0;exitDy=0;exitPerimeter=0;entryX=0.5;entryY=0;entryDx=0;entryDy=0;" edge="1" parent="1" source="Xdr3LyNj60tSeZOuh8ZX-4" target="Xdr3LyNj60tSeZOuh8ZX-10">
          <mxGeometry relative="1" as="geometry" />
        </mxCell>
        <mxCell id="Xdr3LyNj60tSeZOuh8ZX-13" value="T" style="edgeLabel;html=1;align=center;verticalAlign=middle;resizable=0;points=[];" vertex="1" connectable="0" parent="Xdr3LyNj60tSeZOuh8ZX-11">
          <mxGeometry y="1" relative="1" as="geometry">
            <mxPoint as="offset" />
          </mxGeometry>
        </mxCell>
        <mxCell id="Xdr3LyNj60tSeZOuh8ZX-4" value="BIL MOD 2 == 0" style="strokeWidth=2;html=1;shape=mxgraph.flowchart.decision;whiteSpace=wrap;fillColor=#f5f5f5;gradientColor=#b3b3b3;strokeColor=#666666;" vertex="1" parent="1">
          <mxGeometry x="370" y="-30" width="100" height="100" as="geometry" />
        </mxCell>
        <mxCell id="Xdr3LyNj60tSeZOuh8ZX-6" value="BIL" style="shape=parallelogram;perimeter=parallelogramPerimeter;whiteSpace=wrap;html=1;fixedSize=1;fillColor=#f5f5f5;gradientColor=#b3b3b3;strokeColor=#666666;" vertex="1" parent="1">
          <mxGeometry x="360" y="-150" width="120" height="60" as="geometry" />
        </mxCell>
        <mxCell id="Xdr3LyNj60tSeZOuh8ZX-9" value="GENAP" style="shape=parallelogram;perimeter=parallelogramPerimeter;whiteSpace=wrap;html=1;fixedSize=1;fillColor=#f5f5f5;gradientColor=#b3b3b3;strokeColor=#666666;" vertex="1" parent="1">
          <mxGeometry x="530" y="-10" width="120" height="60" as="geometry" />
        </mxCell>
        <mxCell id="Xdr3LyNj60tSeZOuh8ZX-10" value="GANJIL" style="shape=parallelogram;perimeter=parallelogramPerimeter;whiteSpace=wrap;html=1;fixedSize=1;fillColor=#f5f5f5;gradientColor=#b3b3b3;strokeColor=#666666;" vertex="1" parent="1">
          <mxGeometry x="360" y="140" width="120" height="60" as="geometry" />
        </mxCell>
        <mxCell id="Xdr3LyNj60tSeZOuh8ZX-14" value="END" style="strokeWidth=2;html=1;shape=mxgraph.flowchart.terminator;whiteSpace=wrap;fillColor=#f5f5f5;gradientColor=#b3b3b3;strokeColor=#666666;" vertex="1" parent="1">
          <mxGeometry x="370" y="270" width="100" height="60" as="geometry" />
        </mxCell>
        <mxCell id="Xdr3LyNj60tSeZOuh8ZX-15" style="edgeStyle=orthogonalEdgeStyle;rounded=0;orthogonalLoop=1;jettySize=auto;html=1;exitX=0.5;exitY=1;exitDx=0;exitDy=0;entryX=0.5;entryY=0;entryDx=0;entryDy=0;entryPerimeter=0;" edge="1" parent="1" source="Xdr3LyNj60tSeZOuh8ZX-10" target="Xdr3LyNj60tSeZOuh8ZX-14">
          <mxGeometry relative="1" as="geometry" />
        </mxCell>
        <mxCell id="Xdr3LyNj60tSeZOuh8ZX-16" style="edgeStyle=orthogonalEdgeStyle;rounded=0;orthogonalLoop=1;jettySize=auto;html=1;exitX=0.5;exitY=1;exitDx=0;exitDy=0;entryX=1;entryY=0.5;entryDx=0;entryDy=0;entryPerimeter=0;" edge="1" parent="1" source="Xdr3LyNj60tSeZOuh8ZX-9" target="Xdr3LyNj60tSeZOuh8ZX-14">
          <mxGeometry relative="1" as="geometry" />
        </mxCell>
        <mxCell id="Xdr3LyNj60tSeZOuh8ZX-17" style="edgeStyle=orthogonalEdgeStyle;rounded=0;orthogonalLoop=1;jettySize=auto;html=1;exitX=0.5;exitY=1;exitDx=0;exitDy=0;entryX=0.5;entryY=0;entryDx=0;entryDy=0;entryPerimeter=0;" edge="1" parent="1" source="Xdr3LyNj60tSeZOuh8ZX-6" target="Xdr3LyNj60tSeZOuh8ZX-4">
          <mxGeometry relative="1" as="geometry" />
        </mxCell>
      </root>
    </mxGraphModel>
  </diagram>
</mxfile>
